<svg width="1458" height="462" viewBox="0 0 1458 462" fill="none" xmlns="http://www.w3.org/2000/svg">
<rect x="-0.5" y="0.5" width="408" height="428" transform="matrix(-1 0 0 1 408 16)" stroke="#D5D5D5" stroke-dasharray="2 2"/>
<rect x="-0.5" y="0.5" width="394" height="428" transform="matrix(-1 0 0 1 1457 16)" stroke="#D5D5D5" stroke-dasharray="2 2"/>
<rect x="0.5" y="136.5" width="1457" height="132" stroke="#D5D5D5" stroke-dasharray="2 2"/>
<rect x="0.5" y="136.5" width="1457" height="132" stroke="#D5D5D5" stroke-dasharray="2 2"/>
<rect x="153" width="78" height="34" fill="white"/>
<path d="M169.767 7.81818V26H165.923V11.467H165.817L161.653 14.0771V10.668L166.154 7.81818H169.767ZM180.871 26.2486C179.504 26.2486 178.288 26.0266 177.222 25.5827C176.163 25.1329 175.331 24.5204 174.728 23.745C174.124 22.9697 173.822 22.0908 173.822 21.1083C173.822 20.3507 173.994 19.6553 174.337 19.022C174.686 18.3828 175.16 17.8531 175.758 17.4329C176.355 17.0067 177.024 16.7345 177.764 16.6161V16.4918C176.793 16.2965 176.006 15.826 175.402 15.0803C174.799 14.3286 174.497 13.4556 174.497 12.4613C174.497 11.5202 174.772 10.6828 175.322 9.94886C175.873 9.20904 176.628 8.62902 177.586 8.20881C178.551 7.78267 179.646 7.5696 180.871 7.5696C182.096 7.5696 183.188 7.78267 184.147 8.20881C185.112 8.63494 185.869 9.21792 186.42 9.95774C186.97 10.6916 187.248 11.5262 187.254 12.4613C187.248 13.4615 186.941 14.3345 186.331 15.0803C185.721 15.826 184.94 16.2965 183.987 16.4918V16.6161C184.715 16.7345 185.375 17.0067 185.967 17.4329C186.565 17.8531 187.038 18.3828 187.387 19.022C187.743 19.6553 187.923 20.3507 187.929 21.1083C187.923 22.0908 187.618 22.9697 187.015 23.745C186.411 24.5204 185.576 25.1329 184.511 25.5827C183.452 26.0266 182.238 26.2486 180.871 26.2486ZM180.871 23.4254C181.481 23.4254 182.013 23.3159 182.469 23.0969C182.925 22.872 183.28 22.5643 183.534 22.1737C183.795 21.7771 183.925 21.3214 183.925 20.8065C183.925 20.2797 183.792 19.8151 183.526 19.4126C183.259 19.0043 182.898 18.6847 182.443 18.4538C181.987 18.2171 181.463 18.0987 180.871 18.0987C180.285 18.0987 179.761 18.2171 179.3 18.4538C178.838 18.6847 178.474 19.0043 178.208 19.4126C177.947 19.8151 177.817 20.2797 177.817 20.8065C177.817 21.3214 177.944 21.7771 178.199 22.1737C178.453 22.5643 178.811 22.872 179.273 23.0969C179.735 23.3159 180.267 23.4254 180.871 23.4254ZM180.871 15.3022C181.38 15.3022 181.833 15.1986 182.229 14.9915C182.626 14.7843 182.937 14.4973 183.162 14.1303C183.387 13.7634 183.499 13.3402 183.499 12.8608C183.499 12.3873 183.387 11.973 183.162 11.6179C182.937 11.2569 182.629 10.9757 182.238 10.7745C181.848 10.5674 181.392 10.4638 180.871 10.4638C180.356 10.4638 179.9 10.5674 179.504 10.7745C179.107 10.9757 178.797 11.2569 178.572 11.6179C178.353 11.973 178.243 12.3873 178.243 12.8608C178.243 13.3402 178.356 13.7634 178.581 14.1303C178.806 14.4973 179.116 14.7843 179.513 14.9915C179.909 15.1986 180.362 15.3022 180.871 15.3022ZM196.438 31.1136V12.3636H200.167V14.6541H200.336C200.502 14.2872 200.741 13.9143 201.055 13.5355C201.375 13.1508 201.789 12.8312 202.298 12.5767C202.813 12.3163 203.452 12.1861 204.215 12.1861C205.21 12.1861 206.127 12.4465 206.968 12.9673C207.808 13.4822 208.48 14.2605 208.983 15.3022C209.486 16.3379 209.737 17.6371 209.737 19.1996C209.737 20.7206 209.492 22.005 209.001 23.0526C208.515 24.0942 207.852 24.8844 207.012 25.4229C206.177 25.9556 205.242 26.2219 204.207 26.2219C203.473 26.2219 202.848 26.1006 202.333 25.858C201.824 25.6153 201.407 25.3105 201.082 24.9435C200.756 24.5707 200.507 24.1948 200.336 23.8161H200.22V31.1136H196.438ZM200.14 19.1818C200.14 19.9927 200.253 20.6999 200.478 21.3036C200.703 21.9073 201.028 22.3778 201.454 22.7152C201.881 23.0466 202.398 23.2124 203.008 23.2124C203.624 23.2124 204.144 23.0437 204.571 22.7063C204.997 22.363 205.319 21.8896 205.538 21.2859C205.763 20.6763 205.876 19.9749 205.876 19.1818C205.876 18.3946 205.766 17.7022 205.547 17.1044C205.328 16.5066 205.006 16.0391 204.579 15.7017C204.153 15.3643 203.629 15.1957 203.008 15.1957C202.393 15.1957 201.872 15.3584 201.446 15.6839C201.025 16.0095 200.703 16.4711 200.478 17.0689C200.253 17.6667 200.14 18.371 200.14 19.1818ZM214.931 12.3636L217.435 17.131L220 12.3636H223.88L219.929 19.1818L223.986 26H220.125L217.435 21.2859L214.789 26H210.883L214.931 19.1818L211.025 12.3636H214.931Z" fill="#DFDFDF"/>
<rect x="152" y="428" width="78" height="34" fill="white"/>
<path d="M168.767 435.818V454H164.923V439.467H164.817L160.653 442.077V438.668L165.154 435.818H168.767ZM179.871 454.249C178.504 454.249 177.288 454.027 176.222 453.583C175.163 453.133 174.331 452.52 173.728 451.745C173.124 450.97 172.822 450.091 172.822 449.108C172.822 448.351 172.994 447.655 173.337 447.022C173.686 446.383 174.16 445.853 174.758 445.433C175.355 445.007 176.024 444.734 176.764 444.616V444.492C175.793 444.297 175.006 443.826 174.402 443.08C173.799 442.329 173.497 441.456 173.497 440.461C173.497 439.52 173.772 438.683 174.322 437.949C174.873 437.209 175.628 436.629 176.586 436.209C177.551 435.783 178.646 435.57 179.871 435.57C181.096 435.57 182.188 435.783 183.147 436.209C184.112 436.635 184.869 437.218 185.42 437.958C185.97 438.692 186.248 439.526 186.254 440.461C186.248 441.462 185.941 442.335 185.331 443.08C184.721 443.826 183.94 444.297 182.987 444.492V444.616C183.715 444.734 184.375 445.007 184.967 445.433C185.565 445.853 186.038 446.383 186.387 447.022C186.743 447.655 186.923 448.351 186.929 449.108C186.923 450.091 186.618 450.97 186.015 451.745C185.411 452.52 184.576 453.133 183.511 453.583C182.452 454.027 181.238 454.249 179.871 454.249ZM179.871 451.425C180.481 451.425 181.013 451.316 181.469 451.097C181.925 450.872 182.28 450.564 182.534 450.174C182.795 449.777 182.925 449.321 182.925 448.806C182.925 448.28 182.792 447.815 182.526 447.413C182.259 447.004 181.898 446.685 181.443 446.454C180.987 446.217 180.463 446.099 179.871 446.099C179.285 446.099 178.761 446.217 178.3 446.454C177.838 446.685 177.474 447.004 177.208 447.413C176.947 447.815 176.817 448.28 176.817 448.806C176.817 449.321 176.944 449.777 177.199 450.174C177.453 450.564 177.811 450.872 178.273 451.097C178.735 451.316 179.267 451.425 179.871 451.425ZM179.871 443.302C180.38 443.302 180.833 443.199 181.229 442.991C181.626 442.784 181.937 442.497 182.162 442.13C182.387 441.763 182.499 441.34 182.499 440.861C182.499 440.387 182.387 439.973 182.162 439.618C181.937 439.257 181.629 438.976 181.238 438.775C180.848 438.567 180.392 438.464 179.871 438.464C179.356 438.464 178.9 438.567 178.504 438.775C178.107 438.976 177.797 439.257 177.572 439.618C177.353 439.973 177.243 440.387 177.243 440.861C177.243 441.34 177.356 441.763 177.581 442.13C177.806 442.497 178.116 442.784 178.513 442.991C178.909 443.199 179.362 443.302 179.871 443.302ZM195.438 459.114V440.364H199.167V442.654H199.336C199.502 442.287 199.741 441.914 200.055 441.536C200.375 441.151 200.789 440.831 201.298 440.577C201.813 440.316 202.452 440.186 203.215 440.186C204.21 440.186 205.127 440.446 205.968 440.967C206.808 441.482 207.48 442.261 207.983 443.302C208.486 444.338 208.737 445.637 208.737 447.2C208.737 448.721 208.492 450.005 208.001 451.053C207.515 452.094 206.852 452.884 206.012 453.423C205.177 453.956 204.242 454.222 203.207 454.222C202.473 454.222 201.848 454.101 201.333 453.858C200.824 453.615 200.407 453.31 200.082 452.944C199.756 452.571 199.507 452.195 199.336 451.816H199.22V459.114H195.438ZM199.14 447.182C199.14 447.993 199.253 448.7 199.478 449.304C199.703 449.907 200.028 450.378 200.454 450.715C200.881 451.047 201.398 451.212 202.008 451.212C202.624 451.212 203.144 451.044 203.571 450.706C203.997 450.363 204.319 449.89 204.538 449.286C204.763 448.676 204.876 447.975 204.876 447.182C204.876 446.395 204.766 445.702 204.547 445.104C204.328 444.507 204.006 444.039 203.579 443.702C203.153 443.364 202.629 443.196 202.008 443.196C201.393 443.196 200.872 443.358 200.446 443.684C200.025 444.009 199.703 444.471 199.478 445.069C199.253 445.667 199.14 446.371 199.14 447.182ZM213.931 440.364L216.435 445.131L219 440.364H222.88L218.929 447.182L222.986 454H219.125L216.435 449.286L213.789 454H209.883L213.931 447.182L210.025 440.364H213.931Z" fill="#DFDFDF"/>
<path d="M10.4248 175.636C10.4248 174.31 10.6526 173.129 11.1084 172.094C11.57 171.064 12.2033 170.25 13.0082 169.652C13.8191 169.06 14.7542 168.756 15.8136 168.738L15.8136 172.609C15.3697 172.632 14.9791 172.777 14.6417 173.044C14.3103 173.316 14.0528 173.677 13.8694 174.127C13.6859 174.576 13.5941 175.083 13.5941 175.645C13.5941 176.231 13.6977 176.749 13.9049 177.198C14.112 177.648 14.3991 178 14.766 178.255C15.133 178.509 15.5562 178.637 16.0356 178.637C16.5209 178.637 16.95 178.5 17.3228 178.228C17.7016 177.962 17.9976 177.577 18.2106 177.074C18.4237 176.577 18.5302 175.985 18.5302 175.299L18.5302 173.603L21.3534 173.603L21.3534 175.299C21.3534 175.879 21.454 176.391 21.6552 176.834C21.8565 177.284 22.1346 177.633 22.4897 177.882C22.8508 178.131 23.271 178.255 23.7504 178.255C24.2061 178.255 24.6056 178.145 24.9489 177.926C25.2981 177.713 25.5704 177.411 25.7657 177.021C25.961 176.636 26.0586 176.186 26.0586 175.671C26.0586 175.151 25.9639 174.674 25.7745 174.242C25.5911 173.81 25.3277 173.464 24.9844 173.203C24.6411 172.943 24.2387 172.804 23.777 172.786L23.777 169.102C24.8246 169.12 25.7479 169.418 26.5469 169.998C27.3459 170.578 27.9703 171.36 28.4201 172.342C28.8759 173.331 29.1037 174.446 29.1037 175.689C29.1037 176.944 28.8759 178.042 28.4201 178.983C27.9644 179.924 27.3489 180.655 26.5736 181.176C25.8041 181.702 24.94 181.963 23.9812 181.957C22.9632 181.963 22.1139 181.646 21.4333 181.007C20.7526 180.374 20.3206 179.548 20.1371 178.53L19.9951 178.53C19.8234 179.868 19.3588 180.886 18.6013 181.584C17.8496 182.288 16.9085 182.638 15.7781 182.632C14.7423 182.638 13.822 182.339 13.0171 181.735C12.2122 181.137 11.5789 180.312 11.1172 179.258C10.6556 178.205 10.4248 176.997 10.4248 175.636ZM10.6733 185.395L13.4432 185.395L19.4358 191.867C19.9684 192.417 20.4478 192.879 20.874 193.252C21.3001 193.631 21.7174 193.918 22.1258 194.113C22.5401 194.308 22.9869 194.406 23.4663 194.406C23.999 194.406 24.4577 194.285 24.8424 194.042C25.233 193.799 25.5319 193.468 25.739 193.048C25.9521 192.627 26.0586 192.151 26.0586 191.618C26.0586 191.062 25.9462 190.577 25.7213 190.162C25.4964 189.748 25.1738 189.428 24.7536 189.203C24.3334 188.979 23.8333 188.866 23.2532 188.866L23.2532 185.217C24.4429 185.217 25.4757 185.487 26.3516 186.025C27.2276 186.564 27.9052 187.318 28.3846 188.289C28.864 189.26 29.1037 190.378 29.1037 191.645C29.1037 192.947 28.8729 194.08 28.4113 195.045C27.9555 196.016 27.3222 196.77 26.5114 197.309C25.7006 197.848 24.7714 198.117 23.7238 198.117C23.0372 198.117 22.3595 197.981 21.6907 197.708C21.0219 197.442 20.2792 196.966 19.4624 196.279C18.6516 195.593 17.678 194.625 16.5416 193.376L13.9404 190.722L13.8161 190.722L13.8161 198.357L10.6733 198.357L10.6733 185.395ZM5.5597 206.964L24.3097 206.964L24.3097 210.692L22.0192 210.692L22.0192 210.861C22.3862 211.027 22.759 211.266 23.1378 211.58C23.5225 211.9 23.8421 212.314 24.0966 212.823C24.357 213.338 24.4873 213.977 24.4873 214.741C24.4873 215.735 24.2268 216.652 23.706 217.493C23.1911 218.333 22.4128 219.005 21.3711 219.508C20.3354 220.011 19.0363 220.263 17.4738 220.263C15.9527 220.263 14.6684 220.017 13.6208 219.526C12.5791 219.04 11.789 218.378 11.2504 217.537C10.7177 216.703 10.4514 215.767 10.4514 214.732C10.4514 213.998 10.5727 213.373 10.8154 212.858C11.058 212.349 11.3629 211.932 11.7298 211.607C12.1027 211.281 12.4785 211.033 12.8573 210.861L12.8573 210.746L5.5597 210.746L5.5597 206.964ZM17.4915 210.666C16.6807 210.666 15.9734 210.778 15.3697 211.003C14.766 211.228 14.2955 211.553 13.9581 211.98C13.6267 212.406 13.461 212.924 13.461 213.533C13.461 214.149 13.6297 214.67 13.967 215.096C14.3103 215.522 14.7838 215.844 15.3875 216.063C15.9971 216.288 16.6984 216.401 17.4915 216.401C18.2787 216.401 18.9712 216.291 19.5689 216.072C20.1667 215.853 20.6343 215.531 20.9716 215.105C21.309 214.678 21.4777 214.155 21.4777 213.533C21.4777 212.918 21.3149 212.397 20.9894 211.971C20.6639 211.55 20.2022 211.228 19.6044 211.003C19.0067 210.778 18.3024 210.666 17.4915 210.666ZM24.3097 225.456L19.5423 227.96L24.3097 230.525L24.3097 234.405L17.4915 230.454L10.6733 234.512L10.6733 230.65L15.3875 227.96L10.6733 225.314L10.6733 221.408L17.4915 225.456L24.3097 221.55L24.3097 225.456Z" fill="#DFDFDF"/>
<path d="M1452.25 230.656C1452.25 231.982 1452.02 233.162 1451.56 234.198C1451.1 235.228 1450.47 236.042 1449.67 236.64C1448.85 237.231 1447.92 237.536 1446.86 237.554L1446.86 233.683C1447.3 233.66 1447.69 233.515 1448.03 233.248C1448.36 232.976 1448.62 232.615 1448.8 232.165C1448.99 231.715 1449.08 231.209 1449.08 230.647C1449.08 230.061 1448.98 229.543 1448.77 229.093C1448.56 228.644 1448.27 228.291 1447.91 228.037C1447.54 227.782 1447.12 227.655 1446.64 227.655C1446.15 227.655 1445.72 227.791 1445.35 228.064C1444.97 228.33 1444.68 228.715 1444.46 229.218C1444.25 229.715 1444.14 230.307 1444.14 230.993L1444.14 232.689L1441.32 232.689L1441.32 230.993C1441.32 230.413 1441.22 229.901 1441.02 229.457C1440.82 229.008 1440.54 228.658 1440.18 228.41C1439.82 228.161 1439.4 228.037 1438.92 228.037C1438.47 228.037 1438.07 228.146 1437.72 228.365C1437.38 228.578 1437.1 228.88 1436.91 229.271C1436.71 229.656 1436.61 230.105 1436.61 230.62C1436.61 231.141 1436.71 231.618 1436.9 232.05C1437.08 232.482 1437.35 232.828 1437.69 233.088C1438.03 233.349 1438.43 233.488 1438.9 233.506L1438.9 237.19C1437.85 237.172 1436.93 236.873 1436.13 236.293C1435.33 235.713 1434.7 234.932 1434.25 233.95C1433.8 232.961 1433.57 231.845 1433.57 230.603C1433.57 229.348 1433.8 228.25 1434.25 227.309C1434.71 226.368 1435.32 225.637 1436.1 225.116C1436.87 224.589 1437.73 224.329 1438.69 224.335C1439.71 224.329 1440.56 224.646 1441.24 225.285C1441.92 225.918 1442.35 226.744 1442.54 227.762L1442.68 227.762C1442.85 226.424 1443.31 225.406 1444.07 224.708C1444.82 224.003 1445.76 223.654 1446.9 223.66C1447.93 223.654 1448.85 223.953 1449.66 224.557C1450.46 225.155 1451.09 225.98 1451.56 227.034C1452.02 228.087 1452.25 229.295 1452.25 230.656ZM1452 220.897L1449.23 220.897L1443.24 214.425C1442.7 213.875 1442.23 213.413 1441.8 213.04C1441.37 212.661 1440.96 212.374 1440.55 212.179C1440.13 211.984 1439.69 211.886 1439.21 211.886C1438.67 211.886 1438.22 212.007 1437.83 212.25C1437.44 212.493 1437.14 212.824 1436.93 213.244C1436.72 213.664 1436.61 214.141 1436.61 214.674C1436.61 215.23 1436.73 215.715 1436.95 216.129C1437.18 216.544 1437.5 216.863 1437.92 217.088C1438.34 217.313 1438.84 217.426 1439.42 217.426L1439.42 221.074C1438.23 221.074 1437.2 220.805 1436.32 220.267C1435.45 219.728 1434.77 218.973 1434.29 218.003C1433.81 217.032 1433.57 215.913 1433.57 214.647C1433.57 213.345 1433.8 212.211 1434.26 211.247C1434.72 210.276 1435.35 209.521 1436.16 208.983C1436.97 208.444 1437.9 208.175 1438.95 208.175C1439.64 208.175 1440.31 208.311 1440.98 208.583C1441.65 208.85 1442.39 209.326 1443.21 210.013C1444.02 210.699 1445 211.667 1446.13 212.916L1448.73 215.57L1448.86 215.57L1448.86 207.935L1452 207.935L1452 220.897ZM1457.11 199.328L1438.36 199.328L1438.36 195.599L1440.65 195.599L1440.65 195.431C1440.29 195.265 1439.91 195.025 1439.54 194.712C1439.15 194.392 1438.83 193.978 1438.58 193.469C1438.32 192.954 1438.19 192.315 1438.19 191.551C1438.19 190.557 1438.45 189.639 1438.97 188.799C1439.48 187.959 1440.26 187.287 1441.3 186.784C1442.34 186.281 1443.64 186.029 1445.2 186.029C1446.72 186.029 1448 186.275 1449.05 186.766C1450.09 187.251 1450.88 187.914 1451.42 188.755C1451.96 189.589 1452.22 190.524 1452.22 191.56C1452.22 192.294 1452.1 192.918 1451.86 193.433C1451.62 193.942 1451.31 194.36 1450.94 194.685C1450.57 195.011 1450.19 195.259 1449.82 195.431L1449.82 195.546L1457.11 195.546L1457.11 199.328ZM1445.18 195.626C1445.99 195.626 1446.7 195.514 1447.3 195.289C1447.91 195.064 1448.38 194.738 1448.72 194.312C1449.05 193.886 1449.21 193.368 1449.21 192.759C1449.21 192.143 1449.04 191.622 1448.71 191.196C1448.36 190.77 1447.89 190.447 1447.29 190.228C1446.68 190.003 1445.97 189.891 1445.18 189.891C1444.39 189.891 1443.7 190.001 1443.1 190.22C1442.51 190.438 1442.04 190.761 1441.7 191.187C1441.36 191.613 1441.2 192.137 1441.2 192.759C1441.2 193.374 1441.36 193.895 1441.68 194.321C1442.01 194.741 1442.47 195.064 1443.07 195.289C1443.67 195.514 1444.37 195.626 1445.18 195.626ZM1438.36 180.836L1443.13 178.332L1438.36 175.766L1438.36 171.887L1445.18 175.837L1452 171.78L1452 175.642L1447.29 178.332L1452 180.978L1452 184.884L1445.18 180.836L1438.36 184.742L1438.36 180.836Z" fill="#DFDFDF"/>
<rect x="1238" width="78" height="34" fill="white"/>
<path d="M1254.77 7.81818V26H1250.92V11.467H1250.82L1246.65 14.0771V10.668L1251.15 7.81818H1254.77ZM1265.87 26.2486C1264.5 26.2486 1263.29 26.0266 1262.22 25.5827C1261.16 25.1329 1260.33 24.5204 1259.73 23.745C1259.12 22.9697 1258.82 22.0908 1258.82 21.1083C1258.82 20.3507 1258.99 19.6553 1259.34 19.022C1259.69 18.3828 1260.16 17.8531 1260.76 17.4329C1261.36 17.0067 1262.02 16.7345 1262.76 16.6161V16.4918C1261.79 16.2965 1261.01 15.826 1260.4 15.0803C1259.8 14.3286 1259.5 13.4556 1259.5 12.4613C1259.5 11.5202 1259.77 10.6828 1260.32 9.94886C1260.87 9.20904 1261.63 8.62902 1262.59 8.20881C1263.55 7.78267 1264.65 7.5696 1265.87 7.5696C1267.1 7.5696 1268.19 7.78267 1269.15 8.20881C1270.11 8.63494 1270.87 9.21792 1271.42 9.95774C1271.97 10.6916 1272.25 11.5262 1272.25 12.4613C1272.25 13.4615 1271.94 14.3345 1271.33 15.0803C1270.72 15.826 1269.94 16.2965 1268.99 16.4918V16.6161C1269.72 16.7345 1270.38 17.0067 1270.97 17.4329C1271.56 17.8531 1272.04 18.3828 1272.39 19.022C1272.74 19.6553 1272.92 20.3507 1272.93 21.1083C1272.92 22.0908 1272.62 22.9697 1272.01 23.745C1271.41 24.5204 1270.58 25.1329 1269.51 25.5827C1268.45 26.0266 1267.24 26.2486 1265.87 26.2486ZM1265.87 23.4254C1266.48 23.4254 1267.01 23.3159 1267.47 23.0969C1267.92 22.872 1268.28 22.5643 1268.53 22.1737C1268.79 21.7771 1268.93 21.3214 1268.93 20.8065C1268.93 20.2797 1268.79 19.8151 1268.53 19.4126C1268.26 19.0043 1267.9 18.6847 1267.44 18.4538C1266.99 18.2171 1266.46 18.0987 1265.87 18.0987C1265.29 18.0987 1264.76 18.2171 1264.3 18.4538C1263.84 18.6847 1263.47 19.0043 1263.21 19.4126C1262.95 19.8151 1262.82 20.2797 1262.82 20.8065C1262.82 21.3214 1262.94 21.7771 1263.2 22.1737C1263.45 22.5643 1263.81 22.872 1264.27 23.0969C1264.73 23.3159 1265.27 23.4254 1265.87 23.4254ZM1265.87 15.3022C1266.38 15.3022 1266.83 15.1986 1267.23 14.9915C1267.63 14.7843 1267.94 14.4973 1268.16 14.1303C1268.39 13.7634 1268.5 13.3402 1268.5 12.8608C1268.5 12.3873 1268.39 11.973 1268.16 11.6179C1267.94 11.2569 1267.63 10.9757 1267.24 10.7745C1266.85 10.5674 1266.39 10.4638 1265.87 10.4638C1265.36 10.4638 1264.9 10.5674 1264.5 10.7745C1264.11 10.9757 1263.8 11.2569 1263.57 11.6179C1263.35 11.973 1263.24 12.3873 1263.24 12.8608C1263.24 13.3402 1263.36 13.7634 1263.58 14.1303C1263.81 14.4973 1264.12 14.7843 1264.51 14.9915C1264.91 15.1986 1265.36 15.3022 1265.87 15.3022ZM1281.44 31.1136V12.3636H1285.17V14.6541H1285.34C1285.5 14.2872 1285.74 13.9143 1286.05 13.5355C1286.37 13.1508 1286.79 12.8312 1287.3 12.5767C1287.81 12.3163 1288.45 12.1861 1289.22 12.1861C1290.21 12.1861 1291.13 12.4465 1291.97 12.9673C1292.81 13.4822 1293.48 14.2605 1293.98 15.3022C1294.49 16.3379 1294.74 17.6371 1294.74 19.1996C1294.74 20.7206 1294.49 22.005 1294 23.0526C1293.52 24.0942 1292.85 24.8844 1292.01 25.4229C1291.18 25.9556 1290.24 26.2219 1289.21 26.2219C1288.47 26.2219 1287.85 26.1006 1287.33 25.858C1286.82 25.6153 1286.41 25.3105 1286.08 24.9435C1285.76 24.5707 1285.51 24.1948 1285.34 23.8161H1285.22V31.1136H1281.44ZM1285.14 19.1818C1285.14 19.9927 1285.25 20.6999 1285.48 21.3036C1285.7 21.9073 1286.03 22.3778 1286.45 22.7152C1286.88 23.0466 1287.4 23.2124 1288.01 23.2124C1288.62 23.2124 1289.14 23.0437 1289.57 22.7063C1290 22.363 1290.32 21.8896 1290.54 21.2859C1290.76 20.6763 1290.88 19.9749 1290.88 19.1818C1290.88 18.3946 1290.77 17.7022 1290.55 17.1044C1290.33 16.5066 1290.01 16.0391 1289.58 15.7017C1289.15 15.3643 1288.63 15.1957 1288.01 15.1957C1287.39 15.1957 1286.87 15.3584 1286.45 15.6839C1286.03 16.0095 1285.7 16.4711 1285.48 17.0689C1285.25 17.6667 1285.14 18.371 1285.14 19.1818ZM1299.93 12.3636L1302.43 17.131L1305 12.3636H1308.88L1304.93 19.1818L1308.99 26H1305.12L1302.43 21.2859L1299.79 26H1295.88L1299.93 19.1818L1296.02 12.3636H1299.93Z" fill="#DFDFDF"/>
<rect x="1237" y="428" width="78" height="34" fill="white"/>
<path d="M1253.77 435.818V454H1249.92V439.467H1249.82L1245.65 442.077V438.668L1250.15 435.818H1253.77ZM1264.87 454.249C1263.5 454.249 1262.29 454.027 1261.22 453.583C1260.16 453.133 1259.33 452.52 1258.73 451.745C1258.12 450.97 1257.82 450.091 1257.82 449.108C1257.82 448.351 1257.99 447.655 1258.34 447.022C1258.69 446.383 1259.16 445.853 1259.76 445.433C1260.36 445.007 1261.02 444.734 1261.76 444.616V444.492C1260.79 444.297 1260.01 443.826 1259.4 443.08C1258.8 442.329 1258.5 441.456 1258.5 440.461C1258.5 439.52 1258.77 438.683 1259.32 437.949C1259.87 437.209 1260.63 436.629 1261.59 436.209C1262.55 435.783 1263.65 435.57 1264.87 435.57C1266.1 435.57 1267.19 435.783 1268.15 436.209C1269.11 436.635 1269.87 437.218 1270.42 437.958C1270.97 438.692 1271.25 439.526 1271.25 440.461C1271.25 441.462 1270.94 442.335 1270.33 443.08C1269.72 443.826 1268.94 444.297 1267.99 444.492V444.616C1268.72 444.734 1269.38 445.007 1269.97 445.433C1270.56 445.853 1271.04 446.383 1271.39 447.022C1271.74 447.655 1271.92 448.351 1271.93 449.108C1271.92 450.091 1271.62 450.97 1271.01 451.745C1270.41 452.52 1269.58 453.133 1268.51 453.583C1267.45 454.027 1266.24 454.249 1264.87 454.249ZM1264.87 451.425C1265.48 451.425 1266.01 451.316 1266.47 451.097C1266.92 450.872 1267.28 450.564 1267.53 450.174C1267.79 449.777 1267.93 449.321 1267.93 448.806C1267.93 448.28 1267.79 447.815 1267.53 447.413C1267.26 447.004 1266.9 446.685 1266.44 446.454C1265.99 446.217 1265.46 446.099 1264.87 446.099C1264.29 446.099 1263.76 446.217 1263.3 446.454C1262.84 446.685 1262.47 447.004 1262.21 447.413C1261.95 447.815 1261.82 448.28 1261.82 448.806C1261.82 449.321 1261.94 449.777 1262.2 450.174C1262.45 450.564 1262.81 450.872 1263.27 451.097C1263.73 451.316 1264.27 451.425 1264.87 451.425ZM1264.87 443.302C1265.38 443.302 1265.83 443.199 1266.23 442.991C1266.63 442.784 1266.94 442.497 1267.16 442.13C1267.39 441.763 1267.5 441.34 1267.5 440.861C1267.5 440.387 1267.39 439.973 1267.16 439.618C1266.94 439.257 1266.63 438.976 1266.24 438.775C1265.85 438.567 1265.39 438.464 1264.87 438.464C1264.36 438.464 1263.9 438.567 1263.5 438.775C1263.11 438.976 1262.8 439.257 1262.57 439.618C1262.35 439.973 1262.24 440.387 1262.24 440.861C1262.24 441.34 1262.36 441.763 1262.58 442.13C1262.81 442.497 1263.12 442.784 1263.51 442.991C1263.91 443.199 1264.36 443.302 1264.87 443.302ZM1280.44 459.114V440.364H1284.17V442.654H1284.34C1284.5 442.287 1284.74 441.914 1285.05 441.536C1285.37 441.151 1285.79 440.831 1286.3 440.577C1286.81 440.316 1287.45 440.186 1288.22 440.186C1289.21 440.186 1290.13 440.446 1290.97 440.967C1291.81 441.482 1292.48 442.261 1292.98 443.302C1293.49 444.338 1293.74 445.637 1293.74 447.2C1293.74 448.721 1293.49 450.005 1293 451.053C1292.52 452.094 1291.85 452.884 1291.01 453.423C1290.18 453.956 1289.24 454.222 1288.21 454.222C1287.47 454.222 1286.85 454.101 1286.33 453.858C1285.82 453.615 1285.41 453.31 1285.08 452.944C1284.76 452.571 1284.51 452.195 1284.34 451.816H1284.22V459.114H1280.44ZM1284.14 447.182C1284.14 447.993 1284.25 448.7 1284.48 449.304C1284.7 449.907 1285.03 450.378 1285.45 450.715C1285.88 451.047 1286.4 451.212 1287.01 451.212C1287.62 451.212 1288.14 451.044 1288.57 450.706C1289 450.363 1289.32 449.89 1289.54 449.286C1289.76 448.676 1289.88 447.975 1289.88 447.182C1289.88 446.395 1289.77 445.702 1289.55 445.104C1289.33 444.507 1289.01 444.039 1288.58 443.702C1288.15 443.364 1287.63 443.196 1287.01 443.196C1286.39 443.196 1285.87 443.358 1285.45 443.684C1285.03 444.009 1284.7 444.471 1284.48 445.069C1284.25 445.667 1284.14 446.371 1284.14 447.182ZM1298.93 440.364L1301.43 445.131L1304 440.364H1307.88L1303.93 447.182L1307.99 454H1304.12L1301.43 449.286L1298.79 454H1294.88L1298.93 447.182L1295.02 440.364H1298.93Z" fill="#DFDFDF"/>
</svg>
