<svg width="138" height="38" viewBox="0 0 138 38" fill="none" xmlns="http://www.w3.org/2000/svg">
<path d="M1.05 29V25.28L13.41 10.61L14.13 12.71H1.32V8H19.41V11.72L7.05 26.39L6.33 24.29H19.86V29H1.05ZM30.2634 29.27C28.4834 29.27 26.9034 28.91 25.5234 28.19C24.1434 27.47 23.0534 26.48 22.2534 25.22C21.4734 23.94 21.0834 22.48 21.0834 20.84C21.0834 19.2 21.4734 17.75 22.2534 16.49C23.0534 15.23 24.1434 14.25 25.5234 13.55C26.9034 12.83 28.4834 12.47 30.2634 12.47C32.0434 12.47 33.6234 12.83 35.0034 13.55C36.4034 14.25 37.4934 15.23 38.2734 16.49C39.0534 17.75 39.4434 19.2 39.4434 20.84C39.4434 22.48 39.0534 23.94 38.2734 25.22C37.4934 26.48 36.4034 27.47 35.0034 28.19C33.6234 28.91 32.0434 29.27 30.2634 29.27ZM30.2634 24.74C30.9234 24.74 31.5034 24.59 32.0034 24.29C32.5234 23.99 32.9334 23.55 33.2334 22.97C33.5334 22.37 33.6834 21.66 33.6834 20.84C33.6834 20.02 33.5334 19.33 33.2334 18.77C32.9334 18.19 32.5234 17.75 32.0034 17.45C31.5034 17.15 30.9234 17 30.2634 17C29.6234 17 29.0434 17.15 28.5234 17.45C28.0234 17.75 27.6134 18.19 27.2934 18.77C26.9934 19.33 26.8434 20.02 26.8434 20.84C26.8434 21.66 26.9934 22.37 27.2934 22.97C27.6134 23.55 28.0234 23.99 28.5234 24.29C29.0434 24.59 29.6234 24.74 30.2634 24.74ZM50.6039 29.27C48.6839 29.27 47.0039 28.91 45.5639 28.19C44.1439 27.45 43.0339 26.45 42.2339 25.19C41.4539 23.91 41.0639 22.46 41.0639 20.84C41.0639 19.22 41.4439 17.78 42.2039 16.52C42.9839 15.24 44.0539 14.25 45.4139 13.55C46.7739 12.83 48.3039 12.47 50.0039 12.47C51.6039 12.47 53.0639 12.8 54.3839 13.46C55.7039 14.1 56.7539 15.05 57.5339 16.31C58.3139 17.57 58.7039 19.1 58.7039 20.9C58.7039 21.1 58.6939 21.33 58.6739 21.59C58.6539 21.85 58.6339 22.09 58.6139 22.31H45.7439V19.31H55.5839L53.4239 20.15C53.4439 19.41 53.3039 18.77 53.0039 18.23C52.7239 17.69 52.3239 17.27 51.8039 16.97C51.3039 16.67 50.7139 16.52 50.0339 16.52C49.3539 16.52 48.7539 16.67 48.2339 16.97C47.7339 17.27 47.3439 17.7 47.0639 18.26C46.7839 18.8 46.6439 19.44 46.6439 20.18V21.05C46.6439 21.85 46.8039 22.54 47.1239 23.12C47.4639 23.7 47.9439 24.15 48.5639 24.47C49.1839 24.77 49.9239 24.92 50.7839 24.92C51.5839 24.92 52.2639 24.81 52.8239 24.59C53.4039 24.35 53.9739 23.99 54.5339 23.51L57.5339 26.63C56.7539 27.49 55.7939 28.15 54.6539 28.61C53.5139 29.05 52.1639 29.27 50.6039 29.27ZM63.829 35.09C62.969 35.09 62.099 34.95 61.219 34.67C60.359 34.41 59.659 34.06 59.119 33.62L61.099 29.63C61.439 29.93 61.829 30.16 62.269 30.32C62.729 30.5 63.179 30.59 63.619 30.59C64.239 30.59 64.729 30.45 65.089 30.17C65.449 29.89 65.759 29.45 66.019 28.85L66.769 26.96L67.219 26.39L72.739 12.74H78.169L71.149 29.66C70.589 31.06 69.939 32.15 69.199 32.93C68.479 33.73 67.669 34.29 66.769 34.61C65.889 34.93 64.909 35.09 63.829 35.09ZM66.049 29.69L58.879 12.74H64.729L70.009 25.88L66.049 29.69Z" fill="#171719"/>
<path d="M81.23 30.27C80.27 30.27 79.46 29.95 78.8 29.31C78.14 28.67 77.81 27.86 77.81 26.88C77.81 25.86 78.14 25.05 78.8 24.45C79.46 23.83 80.27 23.52 81.23 23.52C82.19 23.52 83 23.83 83.66 24.45C84.32 25.05 84.65 25.86 84.65 26.88C84.65 27.86 84.32 28.67 83.66 29.31C83 29.95 82.19 30.27 81.23 30.27Z" fill="#7421FC"/>
<path d="M76.79 22L81.425 11.5H84.35L89 22H85.91L82.28 12.955H83.45L79.82 22H76.79ZM79.325 19.96L80.09 17.77H85.22L85.985 19.96H79.325ZM93.6088 25.045C92.8288 25.045 92.0838 24.955 91.3738 24.775C90.6738 24.595 90.0738 24.33 89.5738 23.98L90.6088 21.985C90.9488 22.255 91.3688 22.465 91.8688 22.615C92.3788 22.775 92.8738 22.855 93.3538 22.855C94.1238 22.855 94.6788 22.685 95.0188 22.345C95.3588 22.015 95.5288 21.53 95.5288 20.89V19.93L95.6788 17.65L95.6638 15.355V13.87H98.3788V20.515C98.3788 22.055 97.9638 23.195 97.1338 23.935C96.3038 24.675 95.1288 25.045 93.6088 25.045ZM93.1138 21.58C92.3938 21.58 91.7288 21.42 91.1188 21.1C90.5188 20.77 90.0338 20.315 89.6638 19.735C89.3038 19.145 89.1238 18.45 89.1238 17.65C89.1238 16.85 89.3038 16.16 89.6638 15.58C90.0338 14.99 90.5188 14.535 91.1188 14.215C91.7288 13.895 92.3938 13.735 93.1138 13.735C93.8038 13.735 94.3938 13.875 94.8838 14.155C95.3738 14.425 95.7438 14.85 95.9938 15.43C96.2538 16.01 96.3838 16.75 96.3838 17.65C96.3838 18.55 96.2538 19.29 95.9938 19.87C95.7438 20.45 95.3738 20.88 94.8838 21.16C94.3938 21.44 93.8038 21.58 93.1138 21.58ZM93.7888 19.315C94.1288 19.315 94.4288 19.245 94.6888 19.105C94.9588 18.965 95.1688 18.77 95.3188 18.52C95.4788 18.27 95.5588 17.98 95.5588 17.65C95.5588 17.32 95.4788 17.03 95.3188 16.78C95.1688 16.53 94.9588 16.34 94.6888 16.21C94.4288 16.07 94.1288 16 93.7888 16C93.4488 16 93.1438 16.07 92.8738 16.21C92.6038 16.34 92.3888 16.53 92.2288 16.78C92.0788 17.03 92.0038 17.32 92.0038 17.65C92.0038 17.98 92.0788 18.27 92.2288 18.52C92.3888 18.77 92.6038 18.965 92.8738 19.105C93.1438 19.245 93.4488 19.315 93.7888 19.315ZM104.47 22.135C103.51 22.135 102.67 21.955 101.95 21.595C101.24 21.225 100.685 20.725 100.285 20.095C99.8949 19.455 99.6999 18.73 99.6999 17.92C99.6999 17.11 99.8899 16.39 100.27 15.76C100.66 15.12 101.195 14.625 101.875 14.275C102.555 13.915 103.32 13.735 104.17 13.735C104.97 13.735 105.7 13.9 106.36 14.23C107.02 14.55 107.545 15.025 107.935 15.655C108.325 16.285 108.52 17.05 108.52 17.95C108.52 18.05 108.515 18.165 108.505 18.295C108.495 18.425 108.485 18.545 108.475 18.655H102.04V17.155H106.96L105.88 17.575C105.89 17.205 105.82 16.885 105.67 16.615C105.53 16.345 105.33 16.135 105.07 15.985C104.82 15.835 104.525 15.76 104.185 15.76C103.845 15.76 103.545 15.835 103.285 15.985C103.035 16.135 102.84 16.35 102.7 16.63C102.56 16.9 102.49 17.22 102.49 17.59V18.025C102.49 18.425 102.57 18.77 102.73 19.06C102.9 19.35 103.14 19.575 103.45 19.735C103.76 19.885 104.13 19.96 104.56 19.96C104.96 19.96 105.3 19.905 105.58 19.795C105.87 19.675 106.155 19.495 106.435 19.255L107.935 20.815C107.545 21.245 107.065 21.575 106.495 21.805C105.925 22.025 105.25 22.135 104.47 22.135ZM115.129 13.735C115.759 13.735 116.329 13.865 116.839 14.125C117.349 14.375 117.749 14.765 118.039 15.295C118.339 15.825 118.489 16.51 118.489 17.35V22H115.639V17.815C115.639 17.235 115.519 16.815 115.279 16.555C115.049 16.285 114.724 16.15 114.304 16.15C114.004 16.15 113.729 16.22 113.479 16.36C113.229 16.49 113.034 16.695 112.894 16.975C112.754 17.255 112.684 17.62 112.684 18.07V22H109.834V13.87H112.549V16.18L112.024 15.505C112.334 14.915 112.759 14.475 113.299 14.185C113.839 13.885 114.449 13.735 115.129 13.735ZM124.536 22.135C123.636 22.135 122.831 21.955 122.121 21.595C121.421 21.235 120.871 20.74 120.471 20.11C120.071 19.47 119.871 18.74 119.871 17.92C119.871 17.1 120.071 16.375 120.471 15.745C120.871 15.115 121.421 14.625 122.121 14.275C122.831 13.915 123.636 13.735 124.536 13.735C125.456 13.735 126.251 13.93 126.921 14.32C127.591 14.71 128.066 15.26 128.346 15.97L126.141 17.095C125.951 16.715 125.716 16.44 125.436 16.27C125.156 16.09 124.851 16 124.521 16C124.191 16 123.891 16.075 123.621 16.225C123.351 16.375 123.136 16.595 122.976 16.885C122.826 17.165 122.751 17.51 122.751 17.92C122.751 18.34 122.826 18.695 122.976 18.985C123.136 19.275 123.351 19.495 123.621 19.645C123.891 19.795 124.191 19.87 124.521 19.87C124.851 19.87 125.156 19.785 125.436 19.615C125.716 19.435 125.951 19.155 126.141 18.775L128.346 19.9C128.066 20.61 127.591 21.16 126.921 21.55C126.251 21.94 125.456 22.135 124.536 22.135ZM130.667 25.045C130.237 25.045 129.802 24.975 129.362 24.835C128.932 24.705 128.582 24.53 128.312 24.31L129.302 22.315C129.472 22.465 129.667 22.58 129.887 22.66C130.117 22.75 130.342 22.795 130.562 22.795C130.872 22.795 131.117 22.725 131.297 22.585C131.477 22.445 131.632 22.225 131.762 21.925L132.137 20.98L132.362 20.695L135.122 13.87H137.837L134.327 22.33C134.047 23.03 133.722 23.575 133.352 23.965C132.992 24.365 132.587 24.645 132.137 24.805C131.697 24.965 131.207 25.045 130.667 25.045ZM131.777 22.345L128.192 13.87H131.117L133.757 20.44L131.777 22.345Z" fill="#7421FC"/>
</svg>
